<svg width="21" height="20" viewBox="0 0 21 20" fill="none" xmlns="http://www.w3.org/2000/svg">
<path d="M7.24307 16.8749H3.75195C3.58619 16.8749 3.42722 16.8091 3.31001 16.6918C3.1928 16.5746 3.12695 16.4157 3.12695 16.2499V12.7588C3.12695 12.6767 3.14312 12.5954 3.17453 12.5196C3.20594 12.4438 3.25198 12.3749 3.31001 12.3168L12.685 2.94185C12.8022 2.82464 12.9612 2.75879 13.127 2.75879C13.2927 2.75879 13.4517 2.82464 13.5689 2.94185L17.06 6.43296C17.1772 6.55017 17.2431 6.70915 17.2431 6.87491C17.2431 7.04067 17.1772 7.19964 17.06 7.31685L7.68501 16.6918C7.62698 16.7499 7.55808 16.7959 7.48225 16.8273C7.40642 16.8587 7.32515 16.8749 7.24307 16.8749Z" stroke="#151719" stroke-linecap="round" stroke-linejoin="round"/>
<path d="M10.627 5L15.002 9.375" stroke="#151719" stroke-linecap="round" stroke-linejoin="round"/>
<path d="M7.46133 16.8351L3.16602 12.5398" stroke="#151719" stroke-linecap="round" stroke-linejoin="round"/>
</svg>
