<svg width="24" height="18" viewBox="0 0 24 18" fill="none" xmlns="http://www.w3.org/2000/svg">
<path d="M4.5 0.750122L19.5 17.2501M14.5225 11.7749C13.7866 12.4438 12.8151 12.793 11.8217 12.7457C10.8283 12.6983 9.89443 12.2583 9.22545 11.5224C8.55647 10.7866 8.2072 9.81508 8.25446 8.82169C8.30172 7.8283 8.74164 6.89437 9.47746 6.22532M6.93698 3.43077C3.11486 5.36629 1.5 9.00012 1.5 9.00012C1.5 9.00012 4.5 15.7494 12 15.7494C13.7572 15.7634 15.4926 15.3586 17.0623 14.5686M19.5571 12.8532C21.6011 11.0225 22.5 9.00012 22.5 9.00012C22.5 9.00012 19.5 2.24939 12 2.24939C11.3504 2.24833 10.7019 2.30114 10.061 2.40728M12.7057 5.31648C13.5027 5.46953 14.2287 5.87687 14.7746 6.47742C15.3205 7.07796 15.657 7.83932 15.7336 8.6473" stroke="#7D7D7D" stroke-width="1.5" stroke-linecap="round" stroke-linejoin="round"/>
</svg>
