<svg width="24" height="24" viewBox="0 0 24 24" fill="none" xmlns="http://www.w3.org/2000/svg">
<path d="M15.3354 11.8353L9.85372 6.61239C9.76226 6.5252 9.64074 6.47656 9.51438 6.47656C9.38801 6.47656 9.2665 6.5252 9.17503 6.61239L9.16913 6.6183C9.12464 6.66056 9.08921 6.71144 9.065 6.76784C9.04079 6.82423 9.0283 6.88496 9.0283 6.94633C9.0283 7.0077 9.04079 7.06843 9.065 7.12482C9.08921 7.18121 9.12464 7.23209 9.16913 7.27436L14.3311 12.1924L9.16913 17.1085C9.12464 17.1507 9.08921 17.2016 9.065 17.258C9.04079 17.3144 9.0283 17.3751 9.0283 17.4365C9.0283 17.4979 9.04079 17.5586 9.065 17.615C9.08921 17.6714 9.12464 17.7222 9.16913 17.7645L9.17503 17.7704C9.2665 17.8576 9.38801 17.9062 9.51438 17.9062C9.64074 17.9062 9.76226 17.8576 9.85372 17.7704L15.3354 12.5475C15.3836 12.5015 15.4219 12.4463 15.4482 12.3851C15.4744 12.3239 15.4879 12.258 15.4879 12.1914C15.4879 12.1248 15.4744 12.0589 15.4482 11.9977C15.4219 11.9365 15.3836 11.8813 15.3354 11.8353Z" fill="#4696DE"/>
</svg>
